<svg width="64" height="64" viewBox="0 0 64 64" fill="none" xmlns="http://www.w3.org/2000/svg">
<path d="M32.0001 62.2223C48.6913 62.2223 62.2223 48.6913 62.2223 32.0001C62.2223 15.3088 48.6913 1.77783 32.0001 1.77783C15.3088 1.77783 1.77783 15.3088 1.77783 32.0001C1.77783 48.6913 15.3088 62.2223 32.0001 62.2223Z" fill="#EEEFF0"/>
<path d="M32 58.1038C46.4167 58.1038 58.1037 46.4168 58.1037 32.0001C58.1037 17.5834 46.4167 5.89636 32 5.89636C17.5833 5.89636 5.89624 17.5834 5.89624 32.0001C5.89624 46.4168 17.5833 58.1038 32 58.1038Z" fill="#1B1C1E"/>
<path d="M31.6749 37.15H33.4749V31H31.6749V37.15ZM32.4999 29.35C32.7999 29.35 33.0457 29.2542 33.2374 29.0625C33.4291 28.8708 33.5249 28.6333 33.5249 28.35C33.5249 28.0333 33.4291 27.7792 33.2374 27.5875C33.0457 27.3958 32.7999 27.3 32.4999 27.3C32.1999 27.3 31.9541 27.3958 31.7624 27.5875C31.5707 27.7792 31.4749 28.0333 31.4749 28.35C31.4749 28.6333 31.5707 28.8708 31.7624 29.0625C31.9541 29.2542 32.1999 29.35 32.4999 29.35ZM32.4999 42.35C31.0332 42.35 29.6707 42.0875 28.4124 41.5625C27.1541 41.0375 26.0582 40.3083 25.1249 39.375C24.1916 38.4417 23.4624 37.3458 22.9374 36.0875C22.4124 34.8292 22.1499 33.4667 22.1499 32C22.1499 30.55 22.4124 29.1917 22.9374 27.925C23.4624 26.6583 24.1916 25.5625 25.1249 24.6375C26.0582 23.7125 27.1541 22.9792 28.4124 22.4375C29.6707 21.8958 31.0332 21.625 32.4999 21.625C33.9499 21.625 35.3082 21.8958 36.5749 22.4375C37.8416 22.9792 38.9374 23.7125 39.8624 24.6375C40.7874 25.5625 41.5207 26.6542 42.0624 27.9125C42.6041 29.1708 42.8749 30.5333 42.8749 32C42.8749 33.4667 42.6041 34.8292 42.0624 36.0875C41.5207 37.3458 40.7874 38.4417 39.8624 39.375C38.9374 40.3083 37.8416 41.0375 36.5749 41.5625C35.3082 42.0875 33.9499 42.35 32.4999 42.35ZM32.4999 40.375C34.7999 40.375 36.7707 39.5583 38.4124 37.925C40.0541 36.2917 40.8749 34.3167 40.8749 32C40.8749 29.7 40.0541 27.7292 38.4124 26.0875C36.7707 24.4458 34.7999 23.625 32.4999 23.625C30.1999 23.625 28.2291 24.4458 26.5874 26.0875C24.9457 27.7292 24.1249 29.7 24.1249 32C24.1249 34.3167 24.9457 36.2917 26.5874 37.925C28.2291 39.5583 30.1999 40.375 32.4999 40.375Z" fill="white"/>
</svg>
